<?xml version="1.0" encoding="UTF-8" standalone="no"?>
<svg
   xmlns:dc="http://purl.org/dc/elements/1.1/"
   xmlns:cc="http://creativecommons.org/ns#"
   xmlns:rdf="http://www.w3.org/1999/02/22-rdf-syntax-ns#"
   xmlns:svg="http://www.w3.org/2000/svg"
   xmlns="http://www.w3.org/2000/svg"
   xmlns:sodipodi="http://sodipodi.sourceforge.net/DTD/sodipodi-0.dtd"
   xmlns:inkscape="http://www.inkscape.org/namespaces/inkscape"
   sodipodi:docname="sdadadsadasdasdasdasddasdasasddasd.svg"
   inkscape:version="1.0 (4035a4fb49, 2020-05-01)"
   id="svg8"
   version="1.1"
   viewBox="0 0 10 10"
   height="10mm"
   width="10mm">
  <defs
     id="defs2" />
  <sodipodi:namedview
     inkscape:window-maximized="0"
     inkscape:window-y="58"
     inkscape:window-x="62"
     inkscape:window-height="799"
     inkscape:window-width="983"
     showgrid="false"
     inkscape:document-rotation="0"
     inkscape:current-layer="layer1"
     inkscape:document-units="mm"
     inkscape:cy="1.3268487"
     inkscape:cx="26.579359"
     inkscape:zoom="5.6568543"
     inkscape:pageshadow="2"
     inkscape:pageopacity="0.0"
     borderopacity="1.0"
     bordercolor="#666666"
     pagecolor="#ffffff"
     id="base" />
  <metadata
     id="metadata5">
    <rdf:RDF>
      <cc:Work
         rdf:about="">
        <dc:format>image/svg+xml</dc:format>
        <dc:type
           rdf:resource="http://purl.org/dc/dcmitype/StillImage" />
        <dc:title></dc:title>
      </cc:Work>
    </rdf:RDF>
  </metadata>
  <g
     style="display:inline"
     id="layer1"
     inkscape:groupmode="layer"
     inkscape:label="Layer 1">
    <path
       sodipodi:nodetypes="csssssc"
       id="path1994"
       d="M 6.8740702,9.0588883 C 1.8070137,5.5613275 -0.68815919,6.8922154 2.2292662,3.9827187 5.146799,1.0732215 8.8048496,-1.2157596 6.3750599,1.908966 4.1454322,4.7763332 4.784739,5.076325 5.415349,4.4160141 c 0,0 3.4164609,-5.9427635 2.8791506,-2.2594527 -0.5375297,3.6833007 -0.1919494,5.3546974 0.49901,0.4023342 0.6909506,-4.9522958 2.5335614,6.6547531 -1.9194394,6.4999927 z"
       style="mix-blend-mode:normal;fill:#e83900;fill-opacity:1;stroke:#000000;stroke-width:0.0120663px;stroke-linecap:butt;stroke-linejoin:miter;stroke-opacity:1" />
    <path
       style="mix-blend-mode:normal;fill:#e839d1;fill-opacity:1;stroke:#000000;stroke-width:0.0130348px;stroke-linecap:butt;stroke-linejoin:miter;stroke-opacity:1"
       d="M 6.8740702,9.0588883 C 1.8069284,4.9772675 -1.6094461,7.5772065 1.3079829,4.1817295 4.2253884,0.78646239 7.8834304,-1.8846674 5.4538687,1.7617891 3.2241479,5.1080692 3.8634188,5.4580436 4.494149,4.6875893 c 0,0 3.4164609,-6.9351654 2.8789312,-2.6369222 C 6.8357696,6.3489595 7.1811484,8.2995847 7.8722788,2.5203077 8.5632599,-3.258929 11.327005,9.2394743 6.8740702,9.0588883 Z"
       id="path1994-5"
       sodipodi:nodetypes="csssssc" />
    <path
       style="display:inline;mix-blend-mode:normal;fill:#36c0d1;fill-opacity:1;stroke:#000000;stroke-width:0.00891162px;stroke-linecap:butt;stroke-linejoin:miter;stroke-opacity:1"
       d="M 7.6585058,9.9213176 C 4.4508079,6.9041656 2.8712879,8.0524002 4.7181098,5.5425944 6.5650461,3.0329186 8.8805661,1.0583687 7.3426658,3.753685 5.9312261,6.227125 6.3358664,6.4859715 6.735157,5.9164244 c 0,0 2.1627394,-5.12619896 1.8225,-1.9489948 -0.3402306,3.1770454 -0.1215403,4.618865 0.31584,0.3471057 0.4373891,-4.27196356 1.60381,5.7401167 -1.2149912,5.6067823 z"
       id="path2894"
       sodipodi:nodetypes="csssssc" />
  </g>
</svg>
